<mxfile host="app.diagrams.net" modified="2023-06-04T06:13:32.957Z" agent="Mozilla/5.0 (Windows NT 10.0; Win64; x64) AppleWebKit/537.36 (KHTML, like Gecko) Chrome/114.0.0.0 Safari/537.36" version="21.3.7" etag="VJnLbSICBPV7mQjmdwcq" type="github">
  <diagram name="페이지-1" id="XZaaf48l8fev60fgUjH_">
    <mxGraphModel>
      <root>
        <mxCell id="0" />
        <mxCell id="1" parent="0" />
      </root>
    </mxGraphModel>
  </diagram>
</mxfile>
